<?xml version="1.0" encoding="UTF-8"?>
<svg version="1.1" xmlns="http://www.w3.org/2000/svg" width="256" height="256">
<path d="M0 0 C0.75249023 0.26844727 1.50498047 0.53689453 2.28027344 0.81347656 C19.98955485 7.32201589 34.78368071 16.55787889 48 30 C48.80953125 30.81082031 49.6190625 31.62164062 50.453125 32.45703125 C70.13667718 53.20734937 80.16208574 79.88374039 80.24023438 108.30053711 C80.24983159 110.40064803 80.28085225 112.49973197 80.3125 114.59960938 C80.55045949 144.9485961 67.80492639 171.51720464 47.1875 193.25 C27.80606303 211.86838827 3.25377692 222.14509917 -23.50683594 222.35009766 C-25.06786152 222.36651256 -26.6288166 222.39360687 -28.18945312 222.43212891 C-45.45260973 222.85452529 -59.16224103 219.25029166 -72.08984375 207.0234375 C-81.52057981 197.01449564 -82.47327877 186.11703308 -82.2734375 172.99609375 C-82.04970039 167.03161694 -80.77547221 162.28661374 -78 157 C-77.525625 156.030625 -77.05125 155.06125 -76.5625 154.0625 C-70.49586797 142.62923195 -61.85348086 134.58961821 -50.85913086 128.0793457 C-44.68718882 124.40533786 -39.68007682 119.78600732 -37 113 C-34.4965346 102.88395614 -38.20006342 94.5463629 -42.1328125 85.32421875 C-43.77877315 80.91274764 -44.1189737 76.87481695 -44.0625 72.1875 C-44.05347656 71.21167969 -44.04445313 70.23585938 -44.03515625 69.23046875 C-44.02355469 68.49441406 -44.01195313 67.75835937 -44 67 C-44.969375 67.495 -45.93875 67.99 -46.9375 68.5 C-52.20901594 70.71679443 -57.14972578 70.99910978 -62.57421875 69.09765625 C-64.76030037 68.13330941 -66.88890503 67.11793209 -69 66 C-69 65.34 -69 64.68 -69 64 C-68.29875 63.97421875 -67.5975 63.9484375 -66.875 63.921875 C-60.65723045 63.55016052 -54.88896251 63.1712212 -50 59 C-48.0705713 56.33574633 -46.41648576 53.63820624 -44.8359375 50.75390625 C-40.68190761 44.52286142 -36.0420491 42.26657767 -29.0625 40.4375 C-24.84872489 39.30286788 -21.08026844 38.17114981 -17.328125 35.8984375 C-14.14961691 34.08534486 -12.2748058 33.42739759 -8.6875 33.1875 C-7.42486328 33.08501953 -7.42486328 33.08501953 -6.13671875 32.98046875 C-4 33 -4 33 -2 34 C-2 34.66 -2 35.32 -2 36 C-4.046875 37.33203125 -4.046875 37.33203125 -6.75 38.8125 C-13.9804044 43.03872229 -18.03167633 48.85724493 -20.58203125 56.81640625 C-22.85422163 68.68700835 -20.73156087 77.95135509 -14 88 C-11.89117269 90.9083904 -9.66583909 93.71966252 -7.43457031 96.53442383 C-0.46920462 105.38477467 0.11687749 113.99903179 -1 125 C-3.29876757 137.73517233 -11.66933472 147.66702712 -20.20703125 156.9375 C-25.74837032 163.31185083 -28.40268477 169.10503854 -28.27734375 177.55859375 C-27.62182989 183.32896224 -25.237047 187.67664739 -21.3125 191.875 C-12.21865317 197.70878853 -2.69698628 198.15611025 7.88671875 196.56640625 C25.73823624 192.37064812 42.49169212 178.95284835 52.2265625 163.609375 C59.23293653 151.98098662 63.56910432 140.36004457 66 127 C65.38125 128.34191406 65.38125 128.34191406 64.75 129.7109375 C61.00091739 137.64291727 56.93768736 144.4566469 51 151 C50.26136719 151.83144531 49.52273437 152.66289062 48.76171875 153.51953125 C39.84968556 163.0150036 28.33186234 170.6565653 16 175 C15.01 175 14.02 175 13 175 C13 174.34 13 173.68 13 173 C14.08426935 172.01567727 15.22065414 171.08861979 16.375 170.1875 C20.15143279 167.00488791 23.08122229 163.45621527 26 159.5 C29.87546585 154.27564772 33.9815634 150.11062998 39 146 C54.42840071 132.60990426 62.53782051 114.57226428 64.21875 94.37109375 C64.67436267 81.63292299 61.03405588 68.95882556 57 57 C56.67 57 56.34 57 56 57 C55.85304687 58.19882813 55.85304687 58.19882813 55.703125 59.421875 C52.92207968 79.84817339 44.26817311 96.6368449 28.4765625 110.140625 C16.67647059 119 16.67647059 119 12 119 C11.01 115.37 10.02 111.74 9 108 C10.4025 107.401875 11.805 106.80375 13.25 106.1875 C28.19975343 98.71262329 38.24861581 84.56358515 44.04296875 69.2421875 C46.69699963 60.69446363 46.99773164 51.73202054 45 43 C44.90203125 44.07636719 44.8040625 45.15273437 44.703125 46.26171875 C42.79027467 65.59930108 37.49838497 82.67238715 22.03125 95.453125 C17.19253924 99.16599712 12.52833736 102.39167466 7 105 C4 100.375 4 100.375 4 97 C6.08984375 95.4921875 6.08984375 95.4921875 8.9375 93.875 C20.52467186 86.75015363 28.68311232 76.85269294 32.9375 63.8125 C35.54927011 52.53291783 35.32001142 40.42636776 30 30 C29.67 29.67 29.34 29.34 29 29 C29.33 29.99 29.66 30.98 30 32 C33.41359409 45.85084221 31.05232353 60.9659854 23.92578125 73.203125 C18.00720443 81.79886739 10.53720816 89.01341452 2 95 C-0.31 93.02 -2.62 91.04 -5 89 C-3.77765334 85.33296003 -2.53062372 84.72893801 0.5625 82.5 C11.37846866 74.06694861 17.84200445 62.67594596 19.74609375 49.17578125 C20.75094587 36.60740014 18.21466823 25.42276537 10.3671875 15.4609375 C9.04362661 13.8770279 9.04362661 13.8770279 7 13 C7.33 14.65 7.66 16.3 8 18 C6.80503906 17.51789062 5.61007813 17.03578125 4.37890625 16.5390625 C2.77357865 15.90068661 1.16810184 15.26268584 -0.4375 14.625 C-1.22060547 14.30789062 -2.00371094 13.99078125 -2.81054688 13.6640625 C-23.85849187 5.34882497 -45.10139795 6.98972501 -66 15 C-66.73992187 15.3815625 -67.47984375 15.763125 -68.2421875 16.15625 C-70 17 -70 17 -73 17 C-73 16.01 -73 15.02 -73 14 C-81.20676653 22.75388429 -85.62126302 32.39777651 -85.2421875 44.5703125 C-83.9184507 57.85038171 -78.36624699 70.96889306 -68.453125 80.0390625 C-62.72948385 84.61432979 -56.90000888 88.37710718 -50 90.875 C-47.25690773 91.9958334 -46.24293769 92.58051753 -44.7421875 95.171875 C-43.9273972 97.47677729 -43.29050482 99.57287912 -43 102 C-43.33 102.66 -43.66 103.32 -44 104 C-62.6981404 97.74884655 -81.12342665 89.5321204 -90.53125 70.98046875 C-94.25256011 62.380348 -96.36222305 54.46957255 -96.25 45.125 C-96.24613281 44.34141113 -96.24226563 43.55782227 -96.23828125 42.75048828 C-96.1526822 37.00465226 -95.56207302 31.55093806 -94 26 C-94.65239158 27.39278017 -95.29660552 28.78939212 -95.9375 30.1875 C-96.29714844 30.96480469 -96.65679687 31.74210937 -97.02734375 32.54296875 C-102.2590599 45.75883002 -99.07073502 61.16005087 -93.8671875 73.73828125 C-86.26235145 90.33294005 -70.26421848 99.36154348 -54 106 C-51.01364132 107.10899261 -48.05422914 108.08908956 -45 109 C-46.15173355 111.46800047 -47.04783565 113.04783565 -49 115 C-64.40564883 114.75152179 -79.5370017 105.12561816 -90.39453125 94.80078125 C-103.13066129 81.10991883 -107.86715892 66.08225917 -111 48 C-111.89231691 67.0856672 -107.28360634 81.65232099 -94.5625 96.375 C-83.12780144 108.39112391 -68.83887128 115.44032493 -53 120 C-53 122 -53 122 -54.3984375 123.578125 C-57.16757248 125.92039728 -59.50820506 127.84604252 -63.1953125 128.2265625 C-79.80050178 125.69356753 -96.29116515 113.10394888 -106 100 C-113.25618717 88.65638262 -118.07693979 77.71616472 -120.25 64.375 C-120.42273438 63.37082031 -120.59546875 62.36664063 -120.7734375 61.33203125 C-121.19215539 58.88951024 -121.60082057 56.44577621 -122 54 C-129.51767055 75.27642608 -134.16570009 96.65616639 -124.48754883 118.16259766 C-116.9065768 133.70687009 -104.77053702 146.59798412 -89 154 C-89.20496094 154.56847656 -89.40992188 155.13695312 -89.62109375 155.72265625 C-91.29092669 160.5084454 -92.46376936 164.95943201 -93 170 C-107.78171057 165.84882125 -119.0664764 152.10343062 -126.55078125 139.359375 C-127.72693532 137.252237 -128.87973645 135.137277 -130 133 C-125.02548987 149.67923985 -118.68847022 164.8563387 -107 178 C-106.09894531 179.11375 -106.09894531 179.11375 -105.1796875 180.25 C-101.30602388 184.9178457 -97.19874719 188.41811653 -92.3125 191.9375 C-86.44128961 196.19425217 -83.7164223 200.36248116 -81 207 C-78.21795365 211.21794124 -75.63244691 212.9996252 -71 215 C-71 215.66 -71 216.32 -71 217 C-76.59667509 216.42413632 -81.11011838 214.39353435 -86.125 212 C-86.96595215 211.59918213 -87.8069043 211.19836426 -88.67333984 210.78540039 C-95.83049217 207.26997961 -101.90372211 203.16838171 -108 198 C-109.19302734 197.03126953 -109.19302734 197.03126953 -110.41015625 196.04296875 C-129.76252834 179.74448728 -142.74892017 154.9755307 -146 130 C-146.29495859 125.14241153 -146.33413869 120.30311447 -146.3125 115.4375 C-146.31034485 114.77770142 -146.3081897 114.11790283 -146.30596924 113.43811035 C-146.15252426 84.09552712 -137.83978592 58.62548859 -119 36 C-117.93845703 34.69095703 -117.93845703 34.69095703 -116.85546875 33.35546875 C-89.87986169 1.57530088 -39.77589573 -14.36405347 0 0 Z M-92 22 C-91 24 -91 24 -91 24 Z M26 23 C27 25 27 25 27 25 Z M43 38 C44 40 44 40 44 40 Z M-30.921875 48.14453125 C-31.82679688 48.97017578 -31.82679688 48.97017578 -32.75 49.8125 C-33.36359375 50.35519531 -33.9771875 50.89789063 -34.609375 51.45703125 C-36.22316135 52.9014156 -36.22316135 52.9014156 -36 55 C-31.00724943 53.72278474 -28.42388092 51.82669043 -25 48 C-27.56147782 47.01961136 -28.5057783 46.70567691 -30.921875 48.14453125 Z M55 52 C56 55 56 55 56 55 Z M-32 69 C-32.62839463 77.48332756 -29.74401532 83.50399536 -26.0234375 90.99609375 C-20.13889899 102.92002705 -15.69658303 113.67733829 -20 127 C-23.48885091 135.79481167 -28.17492308 142.86948928 -34.13989258 150.14697266 C-39.53477256 156.75298668 -43.32343751 163.17864537 -43.2265625 171.9296875 C-42.88333493 175.06607737 -41.67219794 177.36307249 -40 180 C-39.34 180.33 -38.68 180.66 -38 181 C-38.10699219 180.31035156 -38.21398437 179.62070313 -38.32421875 178.91015625 C-39.98538561 165.8887515 -34.79977615 158.74797383 -27.24707031 148.66748047 C-18.14555305 136.49767567 -11.43585082 125.61266273 -13.40625 109.8046875 C-15.37693996 100.49577043 -20.34578701 92.32911538 -25.1328125 84.2265625 C-28.08213745 79.13003027 -30.29854217 74.89224577 -31 69 C-31.33 69 -31.66 69 -32 69 Z M-29 120 C-28 122 -28 122 -28 122 Z M-30 122 C-30.98508307 123.54577501 -31.93623755 125.11316392 -32.875 126.6875 C-37.7626576 134.49767451 -43.7570465 141.31989371 -49.93359375 148.1328125 C-56.49418976 155.429635 -58.44008159 163.49235342 -58.265625 173.16015625 C-57.39365405 182.4825516 -54.3649941 190.10724817 -47.73828125 196.77734375 C-35.38909119 206.80115138 -19.61404313 210.21332055 -4 209 C-0.61991631 208.49102987 2.68656231 207.83770885 6 207 C6 206.67 6 206.34 6 206 C5.38181396 205.9906543 4.76362793 205.98130859 4.12670898 205.97167969 C-30.72544309 205.31183384 -30.72544309 205.31183384 -44.05859375 193.1171875 C-49.21386445 187.65110006 -52.04314723 182.17796893 -52.375 174.625 C-51.8623738 163.11062699 -46.35800539 155.65389506 -39.3203125 146.9140625 C-33.44930148 139.46122467 -29.54070749 131.55249899 -29 122 C-29.33 122 -29.66 122 -30 122 Z M-132 127 C-131 129 -131 129 -131 129 Z M-70 166 C-70.54433385 179.88051323 -70.12038495 189.83953461 -60.91796875 200.96484375 C-56.10094816 206.07618331 -49.75953814 210.82675603 -43 213 C-41.515 212.505 -41.515 212.505 -40 212 C-40.71285156 211.57589844 -41.42570312 211.15179688 -42.16015625 210.71484375 C-54.51658636 203.14798547 -63.11286448 194.1958699 -66.875 179.75 C-67.85354908 175.18743987 -68.55349669 170.64363445 -69 166 C-69.33 166 -69.66 166 -70 166 Z " fill="#BC3D25" transform="translate(161,19)"/>
<path d="M0 0 C0.66 0 1.32 0 2 0 C2.23074219 0.82242188 2.46148437 1.64484375 2.69921875 2.4921875 C6.02471195 13.87510097 10.24930031 22.98284612 18 32 C18.74830078 32.90878906 18.74830078 32.90878906 19.51171875 33.8359375 C27.60289647 42.84425124 41.07454518 49.50931815 53 51 C51.76163579 54.71509263 49.77895064 56.28882864 47 59 C46.34 59.99 45.68 60.98 45 62 C29.98502329 59.85500333 16.33130336 51.29827138 7.25 39.3125 C-0.44618817 27.49015034 -1.99774417 16.76886957 -1 3 C-0.67 2.01 -0.34 1.02 0 0 Z " fill="#A50213" transform="translate(37,100)"/>
<path d="M0 0 C0.66 0 1.32 0 2 0 C4.67742877 11.64572677 3.42529398 23.04441531 -2.390625 33.5 C-3.83679474 35.75298023 -5.36730259 37.87913427 -7 40 C-7.67675781 40.92232422 -7.67675781 40.92232422 -8.3671875 41.86328125 C-15.78689011 51.31606622 -27.81263166 58.27287475 -39.75 59.8125 C-41.35875 59.9053125 -41.35875 59.9053125 -43 60 C-43 56.37 -43 52.74 -43 49 C-42.04480469 48.5875 -41.08960938 48.175 -40.10546875 47.75 C-24.11029299 40.68072211 -10.98043242 31.5831202 -3.99609375 14.859375 C-2.30056652 9.99221448 -1.08093299 5.03556587 0 0 Z " fill="#AB0313" transform="translate(218,96)"/>
<path d="M0 0 C0.66 0 1.32 0 2 0 C2.54104517 6.49254205 1.93316907 11.63438046 -2 17 C-5.2136252 19.95799592 -8.6260882 21.00239265 -12.75 22.3125 C-18.13747534 24.15322074 -22.24367015 26.14942837 -26.546875 29.86328125 C-28 31 -28 31 -30 31 C-30.4427571 24.80140054 -29.95668509 20.00733028 -26 15 C-23.50756869 13.16226263 -20.88850513 12.08504738 -18 11 C-7.49770354 7.50381829 -7.49770354 7.50381829 0 0 Z " fill="#A30413" transform="translate(174,169)"/>
<path d="M0 0 C0.66 0 1.32 0 2 0 C4.69804642 11.73540516 3.39456419 23.37506403 -2.63671875 33.83984375 C-3.31154297 34.90912109 -3.31154297 34.90912109 -4 36 C-4.33 34.68 -4.66 33.36 -5 32 C-7.64 31.67 -10.28 31.34 -13 31 C-11.5733944 28.0109216 -9.91568198 25.28344349 -8.125 22.5 C-3.90001138 15.52721926 -1.47103173 7.99600414 0 0 Z " fill="#CD7C39" transform="translate(218,96)"/>
<path d="M0 0 C0.66 0 1.32 0 2 0 C2.23074219 0.82242188 2.46148437 1.64484375 2.69921875 2.4921875 C4.61044139 9.03415905 6.75224737 15.00256902 10.046875 20.9765625 C11 23 11 23 11 26 C8.36 26 5.72 26 3 26 C3.99 28.97 4.98 31.94 6 35 C0.11395981 29.11395981 -1.20890377 22.05425776 -1.32348633 13.94165039 C-1.27800654 3.83401961 -1.27800654 3.83401961 0 0 Z " fill="#C46E34" transform="translate(37,100)"/>
<path d="M0 0 C7.59 0 15.18 0 23 0 C22 2 22 2 19.12109375 3.078125 C17.90550781 3.46484375 16.68992188 3.8515625 15.4375 4.25 C10.06495309 6.03288256 5.75656051 8.1492293 1.453125 11.86328125 C0 13 0 13 -2 13 C-2.18393122 7.57402889 -2.09708587 5.24271468 0 0 Z " fill="#860010" transform="translate(146,187)"/>
<path d="M0 0 C3.38105129 3.41045173 6.33711722 7.00567582 9 11 C8.360625 10.835 7.72125 10.67 7.0625 10.5 C3.02413348 9.84067485 -0.91807258 9.91996221 -5 10 C-4.67 11.32 -4.34 12.64 -4 14 C-8.02512852 10.66885915 -9.66129814 6.93899852 -11 2 C-11 1.01 -11 0.02 -11 -1 C-6.57668918 -2.02867693 -3.93441429 -2.3990331 0 0 Z " fill="#B34427" transform="translate(51,127)"/>
<path d="M0 0 C1 3 1 3 0.25 5.5625 C-1 8 -1 8 -4 10 C-6.93593133 10 -9.76556416 9.77500573 -12.6875 9.5 C-13.68136719 9.4071875 -14.67523438 9.314375 -15.69921875 9.21875 C-16.45847656 9.1465625 -17.21773437 9.074375 -18 9 C-16.33333333 7.33333333 -14.66666667 5.66666667 -13 4 C-12.4225 3.236875 -11.845 2.47375 -11.25 1.6875 C-7.76468064 -0.92648952 -4.21048402 -0.32388339 0 0 Z " fill="#B73021" transform="translate(213,127)"/>
<path d="M0 0 C0.99 0.33 1.98 0.66 3 1 C2.8453125 2.85625 2.8453125 2.85625 2.6875 4.75 C2.65719637 11.13396555 5.37608426 16.30689796 8 22 C10.84445845 28.23442947 11.08001404 34.86102406 9.34765625 41.5 C5.98606245 49.81020614 0.17385264 56.31375273 -8 60 C-8.66 59.67 -9.32 59.34 -10 59 C-9.27554688 58.53851563 -8.55109375 58.07703125 -7.8046875 57.6015625 C-0.23765967 52.49634106 5.2251924 47.51100844 7.68359375 38.4921875 C8.93178536 30.28243238 6.075182 23.48270221 2.875 16.0625 C0.67811271 10.7882935 0.21560199 5.67033229 0 0 Z " fill="#C49740" transform="translate(117,91)"/>
<path d="M0 0 C3.9106923 2.01063872 7.4563072 4.40349986 11 7 C7.75432383 8.62283808 4.36160376 7.54725234 0.875 7.0625 C0.12089844 6.96259766 -0.63320313 6.86269531 -1.41015625 6.75976562 C-3.27417753 6.51201596 -5.13719288 6.25671943 -7 6 C-4.525 9.465 -4.525 9.465 -2 13 C-5.81311305 11.5019913 -7.72483551 9.37351976 -10 6 C-10.75 3.1875 -10.75 3.1875 -11 1 C-7.40854457 -0.79572771 -3.84942836 -0.72247336 0 0 Z " fill="#A71F1B" transform="translate(57,136)"/>
<path d="M0 0 C0.66 0 1.32 0 2 0 C3.00926479 4.15626368 3.10239579 8.04365094 3.0625 12.3125 C3.05347656 13.56675781 3.04445312 14.82101563 3.03515625 16.11328125 C3.02355469 17.06589844 3.01195312 18.01851562 3 19 C0.13822943 20.43088528 -1.93375773 19.59991697 -5 19 C-4.80664062 18.38253906 -4.61328125 17.76507813 -4.4140625 17.12890625 C-2.67003849 11.45651132 -1.21782106 5.80806965 0 0 Z " fill="#DC9B43" transform="translate(218,96)"/>
<path d="M0 0 C0.75 1.75 0.75 1.75 1 4 C-0.9375 6.25 -0.9375 6.25 -3 8 C-3.99 7.67 -4.98 7.34 -6 7 C-6 6.34 -6 5.68 -6 5 C-13.92 5.495 -13.92 5.495 -22 6 C-16.56851122 1.92638341 -14.60499776 0.76475878 -7.875 0.9375 C-5.58387212 0.99138133 -3.29166955 1.02051367 -1 1 C-0.67 0.67 -0.34 0.34 0 0 Z " fill="#AB1D1B" transform="translate(208,135)"/>
<path d="M0 0 C0.66 0 1.32 0 2 0 C2.64715133 2.0829243 3.29267166 4.16635539 3.9375 6.25 C4.47697266 7.99023438 4.47697266 7.99023438 5.02734375 9.765625 C5.75066637 12.17089058 6.42542411 14.55654044 7 17 C4.69 16.67 2.38 16.34 0 16 C0 17.65 0 19.3 0 21 C-0.33 21 -0.66 21 -1 21 C-1.0269501 18.06243881 -1.04681474 15.12512445 -1.0625 12.1875 C-1.07087891 11.35412109 -1.07925781 10.52074219 -1.08789062 9.66210938 C-1.09111328 8.85966797 -1.09433594 8.05722656 -1.09765625 7.23046875 C-1.10289307 6.49207764 -1.10812988 5.75368652 -1.11352539 4.99291992 C-1 3 -1 3 0 0 Z " fill="#DDA445" transform="translate(37,100)"/>
<path d="M0 0 C2.68906521 2.67910571 5.36474119 5.36903551 8.015625 8.0859375 C14.01949813 14.20773233 19.98505207 20.01521788 27 25 C19.46950183 25 11.35059831 15.86196525 5.94921875 10.96484375 C3.20397846 8.19759753 1.1123372 5.27071567 -1 2 C-0.67 1.34 -0.34 0.68 0 0 Z " fill="#781E17" transform="translate(40,200)"/>
<path d="M0 0 C0.66 0 1.32 0 2 0 C2.02689216 1.47906892 2.04634621 2.95827483 2.0625 4.4375 C2.07410156 5.26121094 2.08570313 6.08492187 2.09765625 6.93359375 C2 9 2 9 1 10 C-1.18639453 10.07258946 -3.37500389 10.08373783 -5.5625 10.0625 C-7.35880859 10.04896484 -7.35880859 10.04896484 -9.19140625 10.03515625 C-10.11824219 10.02355469 -11.04507813 10.01195312 -12 10 C-8.88492288 7.64134337 -5.7077188 5.3965262 -2.48828125 3.18359375 C-0.85004921 2.0514968 -0.85004921 2.0514968 0 0 Z " fill="#C44A2A" transform="translate(174,169)"/>
<path d="M0 0 C-0.28109113 1.64767247 -0.57518526 3.29313145 -0.875 4.9375 C-1.03742188 5.85402344 -1.19984375 6.77054687 -1.3671875 7.71484375 C-1.57601562 8.46894531 -1.78484375 9.22304687 -2 10 C-2.99 10.495 -2.99 10.495 -4 11 C-4 9.68 -4 8.36 -4 7 C-6.64 6.67 -9.28 6.34 -12 6 C-9.40401988 0.00927665 -6.20086134 -0.23399477 0 0 Z " fill="#C55E2F" transform="translate(217,121)"/>
<path d="M0 0 C3.24455611 0.57215828 4.74721699 1.43595909 6.9375 3.875 C9.40507873 6.4928881 11.86449956 8.20828546 15 10 C15.33 10.66 15.66 11.32 16 12 C18.01669827 13.13350534 18.01669827 13.13350534 20 14 C20 14.66 20 15.32 20 16 C20.99 16 21.98 16 23 16 C23 16.66 23 17.32 23 18 C14.13670167 14.84824951 6.06074073 8.13636707 0 1 C0 0.67 0 0.34 0 0 Z " fill="#8B4223" transform="translate(43,170)"/>
<path d="M0 0 C1.41823316 0.08006155 2.83603027 0.17654137 4.25 0.3125 C5.4577558 3.93576739 4.79311128 4.95396369 3.25 8.3125 C2.92 7.3225 2.59 6.3325 2.25 5.3125 C-1.38 5.3125 -5.01 5.3125 -8.75 5.3125 C-6.33348981 1.10987358 -4.73606739 -0.03729187 0 0 Z " fill="#BE4628" transform="translate(208.75,126.6875)"/>
<path d="M0 0 C-1.7873962 1.33905267 -3.58004953 2.67109066 -5.375 4 C-6.37273437 4.7425 -7.37046875 5.485 -8.3984375 6.25 C-11 8 -11 8 -13 8 C-13 5.36 -13 2.72 -13 0 C-11.20909747 -0.19466332 -9.41723495 -0.38051213 -7.625 -0.5625 C-6.12839844 -0.71912109 -6.12839844 -0.71912109 -4.6015625 -0.87890625 C-2 -1 -2 -1 0 0 Z " fill="#6C000D" transform="translate(157,192)"/>
<path d="M0 0 C0.66 0.66 1.32 1.32 2 2 C1.3709375 2.40089844 0.741875 2.80179688 0.09375 3.21484375 C-9.12554238 9.33789788 -15.454998 16.46952781 -21 26 C-21.33 25.34 -21.66 24.68 -22 24 C-17.30640708 14.24003782 -9.49044022 5.26871414 0 0 Z " fill="#A66C31" transform="translate(106,150)"/>
<path d="M0 0 C0.99 0.33 1.98 0.66 3 1 C2.896875 2.2375 2.79375 3.475 2.6875 4.75 C2.64285988 11.76965959 5.91987683 17.83975366 9 24 C9.04022391 26.3329866 9.04320247 28.66706666 9 31 C8.67 31 8.34 31 8 31 C7.82984375 30.39414063 7.6596875 29.78828125 7.484375 29.1640625 C6.18130626 24.65877164 4.76411282 20.35781856 2.875 16.0625 C0.67811271 10.7882935 0.21560199 5.67033229 0 0 Z " fill="#E8BC4D" transform="translate(117,91)"/>
<path d="M0 0 C-0.33 0.66 -0.66 1.32 -1 2 C-3.97 2 -6.94 2 -10 2 C-9.67 3.32 -9.34 4.64 -9 6 C-9.99 5.34 -10.98 4.68 -12 4 C-12.1875 0.875 -12.1875 0.875 -12 -2 C-6.83652287 -3.11369115 -4.27575725 -3.23921004 0 0 Z " fill="#B63422" transform="translate(56,135)"/>
<path d="M0 0 C1.140625 2.08203125 1.140625 2.08203125 2 4 C0.20793453 3.85915204 -1.58364917 3.71216299 -3.375 3.5625 C-4.37273438 3.48128906 -5.37046875 3.40007812 -6.3984375 3.31640625 C-9 3 -9 3 -11 2 C-11 1.01 -11 0.02 -11 -1 C-6.65290358 -2.01095266 -3.92588896 -2.29010189 0 0 Z " fill="#C2552D" transform="translate(51,127)"/>
<path d="M0 0 C5.5 -0.36666667 5.5 -0.36666667 7.875 1.375 C9 3 9 3 9 5 C7.0085944 5.38133299 5.00720923 5.71325582 3 6 C2.67 5.67 2.34 5.34 2 5 C1.34 5.99 0.68 6.98 0 8 C0 5.36 0 2.72 0 0 Z " fill="#D2833B" transform="translate(37,116)"/>
<path d="M0 0 C0 3.63787651 -0.67888836 4.13064655 -3.0625 6.75 C-3.69414062 7.44609375 -4.32578125 8.1421875 -4.9765625 8.859375 C-7.9198308 11.97310285 -10.92869131 15.01270887 -14 18 C-14.66 17.67 -15.32 17.34 -16 17 C-15.49210938 16.5153125 -14.98421875 16.030625 -14.4609375 15.53125 C-10.27533239 11.45537986 -6.58046337 7.35367817 -3.2265625 2.56640625 C-2 1 -2 1 0 0 Z " fill="#91301E" transform="translate(215,182)"/>
<path d="M0 0 C0.66 0.33 1.32 0.66 2 1 C-11.93548387 14 -11.93548387 14 -17 14 C-16 11 -16 11 -13.625 9.3125 C-11 8 -11 8 -8 8 C-7.6596875 7.1028125 -7.6596875 7.1028125 -7.3125 6.1875 C-5.65731747 3.42886244 -3.79815679 2.50669981 -1 1 C-0.67 0.67 -0.34 0.34 0 0 Z " fill="#871415" transform="translate(205,174)"/>
<path d="M0 0 C3.98622934 1.54364234 5.94281064 4.06825167 8.5625 7.375 C9.32691406 8.33148438 10.09132813 9.28796875 10.87890625 10.2734375 C12.61022012 12.49895698 14.32032949 14.7353963 16 17 C12.66134002 15.55424099 10.51928597 13.73285462 8 11.125 C7.34 10.44695312 6.68 9.76890625 6 9.0703125 C5.34 8.38710937 4.68 7.70390625 4 7 C3.2575 6.31679687 2.515 5.63359375 1.75 4.9296875 C0 3 0 3 0 0 Z " fill="#89331E" transform="translate(46,190)"/>
<path d="M0 0 C0.66 0 1.32 0 2 0 C2.33773437 0.62648437 2.67546875 1.25296875 3.0234375 1.8984375 C3.46945313 2.71570313 3.91546875 3.53296875 4.375 4.375 C4.81585938 5.18710938 5.25671875 5.99921875 5.7109375 6.8359375 C6.9443893 9.10814302 6.9443893 9.10814302 9 11 C9 11.99 9 12.98 9 14 C5.25992989 12.75330996 4.48752843 11.31486492 2.25 8.125 C1.29867187 6.79855469 1.29867187 6.79855469 0.328125 5.4453125 C-0.11015625 4.63835937 -0.5484375 3.83140625 -1 3 C-0.67 2.01 -0.34 1.02 0 0 Z " fill="#8F3E22" transform="translate(31,188)"/>
<path d="M0 0 C0.66 0 1.32 0 2 0 C3.10228696 4.40914783 3.07654536 8.48382401 3 13 C2.67 12.01 2.34 11.02 2 10 C0.35 11.32 -1.3 12.64 -3 14 C-2.01 9.38 -1.02 4.76 0 0 Z " fill="#EAC34F" transform="translate(218,96)"/>
<path d="M0 0 C1.19935725 3.47651527 0.80128318 5.69868278 -0.25 9.1875 C-0.62898437 10.50814453 -0.62898437 10.50814453 -1.015625 11.85546875 C-1.34046875 12.56316406 -1.6653125 13.27085937 -2 14 C-2.99 14.33 -3.98 14.66 -5 15 C-4.55065113 12.87308203 -4.09023527 10.74849961 -3.625 8.625 C-3.36976563 7.44164062 -3.11453125 6.25828125 -2.8515625 5.0390625 C-2 2 -2 2 0 0 Z " fill="#C04C27" transform="translate(228,150)"/>
<path d="M0 0 C1.2153691 3.64610731 0.65387751 4.63565227 -0.75 8.125 C-1.09546875 9.01445312 -1.4409375 9.90390625 -1.796875 10.8203125 C-3 13 -3 13 -6 14 C-5.41892368 10.2397015 -4.34800504 7.46964968 -2.4375 4.1875 C-1.98246094 3.39730469 -1.52742187 2.60710937 -1.05859375 1.79296875 C-0.53458984 0.90544922 -0.53458984 0.90544922 0 0 Z " fill="#BD1619" transform="translate(227,140)"/>
<path d="M0 0 C3.875 1.75 3.875 1.75 5 4 C7.01669827 5.13350534 7.01669827 5.13350534 9 6 C9 6.66 9 7.32 9 8 C9.99 8 10.98 8 12 8 C12 8.66 12 9.32 12 10 C7.88302072 8.54694849 4.45987796 6.67354206 1 4 C0.125 1.75 0.125 1.75 0 0 Z " fill="#840D13" transform="translate(54,178)"/>
<path d="M0 0 C0.33 0.66 0.66 1.32 1 2 C0.00390625 4.3828125 0.00390625 4.3828125 -1.4375 7.125 C-1.91058594 8.03507813 -2.38367188 8.94515625 -2.87109375 9.8828125 C-3.24363281 10.58148438 -3.61617188 11.28015625 -4 12 C-5.11889609 8.59825551 -4.9845447 7.95657797 -3.6875 4.3125 C-2 1 -2 1 0 0 Z " fill="#8F3620" transform="translate(85,175)"/>
<path d="M0 0 C3.70503641 0.60334309 5.85968148 2.22474237 8.75 4.5625 C9.94882812 5.52349609 9.94882812 5.52349609 11.171875 6.50390625 C12.07679687 7.24447266 12.07679687 7.24447266 13 8 C9.18008284 8 7.88692091 6.76738773 4.8125 4.5625 C3.91144531 3.92441406 3.01039062 3.28632813 2.08203125 2.62890625 C1.39496094 2.09136719 0.70789062 1.55382812 0 1 C0 0.67 0 0.34 0 0 Z " fill="#6E0910" transform="translate(54,217)"/>
<path d="M0 0 C0.66 0 1.32 0 2 0 C2 1.98 2 3.96 2 6 C-0.31 6 -2.62 6 -5 6 C-3.38405168 3.95880212 -1.7143618 1.95927063 0 0 Z " fill="#DB9140" transform="translate(174,169)"/>
<path d="M0 0 C2.9156164 3.54039134 5.50127818 7.1626772 8 11 C3.44984107 9.48328036 1.49942736 5.83108947 -1 2 C-0.67 1.34 -0.34 0.68 0 0 Z " fill="#AD7C36" transform="translate(37,159)"/>
<path d="M0 0 C2.96404505 2.80804268 5.44499019 5.18315774 7 9 C3.46399535 7.08864614 1.21027154 5.37357234 -1 2 C-0.67 1.34 -0.34 0.68 0 0 Z " fill="#822E1C" transform="translate(40,200)"/>
<path d="M0 0 C0.66 0 1.32 0 2 0 C2.33 2.64 2.66 5.28 3 8 C2.67 7.34 2.34 6.68 2 6 C1.01 6.33 0.02 6.66 -1 7 C-0.67 4.69 -0.34 2.38 0 0 Z " fill="#EDCE53" transform="translate(37,100)"/>
</svg>
